<?xml version="1.0" encoding="UTF-8"?>
<!-- Created with Inkscape (http://www.inkscape.org/) -->
<svg width="118.2mm" height="118.2mm" version="1.1" viewBox="0 0 118.2 118.2" xmlns="http://www.w3.org/2000/svg" xmlns:xlink="http://www.w3.org/1999/xlink">
 <g transform="translate(-97.505 -5.6099)">
  <rect x="97.505" y="5.6099" width="118.2" height="118.2" rx="0" ry="0" fill="#004a03" stroke-width="0" style="paint-order:stroke fill markers"/>
  <path d="m130.3 43.989h16.581c5.6268 0 10.157 3.9416 10.157 9.199v1.8042c0 5.2574-4.5299 9.2769-10.157 9.2769h-16.581c-5.6268 0-10.157-4.0195-10.157-9.2769v-1.8042c0-5.2574 4.5299-9.199 10.157-9.199z" fill="#49a900" stroke-width="0" style="paint-order:stroke fill markers"/>
  <path d="m144.01 39.047c2.8017 0.0062 2.9953 0.0076 4.0167 0.0079 0.4886 1.27e-4 24.714-9e-6 25.801-9e-6 4.2165 0 5.5711 1.1454 5.5711 4.7963 0 6.3477-0.031 4.0121-0.031 13.971s-1.1326 11.492-10.271 11.492c-9.1386 0-26.765-0.02621-26.765-0.02621l0.11079 20.071c16.554 0 24.124-0.0673 37.762-0.21617 12.901-0.14089 18.848-7.6158 18.86-19.304 0.59272-4.7052 0.33286-32.142 0.33286-38.442 0-7.3866-9.3782-12.461-15.293-12.498-4.7845 0.0599-33.225 0.07897-36.337 0.08463-2.0834 0.0038-3.1608 0.0016-3.1608 0.0016l0.061-5.1849-24.642 15.29 24.023 14.723z" color="#000000" fill="#ffd900"/>
  <path d="m129.98 69.102h16.581c5.6268 0 10.157 3.9416 10.157 9.199v1.8042c0 5.2574-4.5299 9.2769-10.157 9.2769h-16.581c-5.6268 0-10.157-4.0195-10.157-9.2769v-1.8042c0-5.2574 4.5299-9.199 10.157-9.199z" fill="#49a900" stroke-width="0" style="paint-order:stroke fill markers"/>
  <path d="m129.95 93.946h16.581c5.6268 0 10.157 3.9416 10.157 9.199v1.8042c0 5.2574-4.5299 9.2769-10.157 9.2769h-16.581c-5.6268 0-10.157-4.0195-10.157-9.2769v-1.8042c0-5.2574 4.5299-9.199 10.157-9.199z" fill="#49a900" stroke-width="0" style="paint-order:stroke fill markers"/>
 </g>
</svg>
